PathFileType	4	(X/Y/Z)	/Users/itak/Documents/Research/Walk-IL/dataset/trc/00189_00008.trc
DataRate	CameraRate	NumFrames	NumMarkers	Units	OrigDataRate	OrigDataStartFrame	OrigNumFrames
100.000000	100.000000	4	53	mm	100.000000	615	821
Frame#	Time	RPSI			LPSI			L3			STRN			T10			C7			CLAV			RBAK			LBAK			LSHO			LUPA			LAEL			LAOL			LWTS			LWPS			LFRA			LIFD			LHPS			LHTS			RSHO			RUPA			RAEL			RAOL			RWTS			RWPS			RFRA			RIFD			RHTS			RHPS			RBHD			LFHD			RFHD			LBHD			LHIP			RHIP			RASI			LASI			LKNE			LTHI			LANK			LTIP			LTOE			LMT1			LMT5			LHEE			RKNE			RTHI			RANK			RTIP			RTOE			RMT1			RMT5			RHEE			
		X1	Y1	Z1	X2	Y2	Z2	X3	Y3	Z3	X4	Y4	Z4	X5	Y5	Z5	X6	Y6	Z6	X7	Y7	Z7	X8	Y8	Z8	X9	Y9	Z9	X10	Y10	Z10	X11	Y11	Z11	X12	Y12	Z12	X13	Y13	Z13	X14	Y14	Z14	X15	Y15	Z15	X16	Y16	Z16	X17	Y17	Z17	X18	Y18	Z18	X19	Y19	Z19	X20	Y20	Z20	X21	Y21	Z21	X22	Y22	Z22	X23	Y23	Z23	X24	Y24	Z24	X25	Y25	Z25	X26	Y26	Z26	X27	Y27	Z27	X28	Y28	Z28	X29	Y29	Z29	X30	Y30	Z30	X31	Y31	Z31	X32	Y32	Z32	X33	Y33	Z33	X34	Y34	Z34	X35	Y35	Z35	X36	Y36	Z36	X37	Y37	Z37	X38	Y38	Z38	X39	Y39	Z39	X40	Y40	Z40	X41	Y41	Z41	X42	Y42	Z42	X43	Y43	Z43	X44	Y44	Z44	X45	Y45	Z45	X46	Y46	Z46	X47	Y47	Z47	X48	Y48	Z48	X49	Y49	Z49	X50	Y50	Z50	X51	Y51	Z51	X52	Y52	Z52	X53	Y53	Z53	

616	6.15	922.1657104492188	1037.403930664062	-76.87797546386719	1043.08642578125	1045.81982421875	-91.52519226074219	975.8694458007812	1080.124267578125	-81.54116058349609	1009.582824707031	1291.505004882812	173.1870422363281	962.8738403320312	1237.7021484375	-116.5152740478516	978.1847534179688	1507.15625	-54.73506164550781	1011.488525390625	1404.979736328125	142.4546356201172	864.5013427734375	1329.761962890625	-101.9715347290039	1074.968139648438	1485.370849609375	-81.53067779541016	1165.662353515625	1476.011840820312	-22.18527793884277	1231.15380859375	1346.21484375	-74.21785736083984	1262.326416015625	1133.8310546875	-70.91653442382812	1177.673461914062	1107.844360351562	-84.21891784667969	1306.29248046875	917.4591674804688	60.30686187744141	1308.984741210938	886.6944580078125	-28.82523345947266	1290.980346679688	1025.66552734375	-56.90655517578125	1314.800415039062	735.4034423828125	101.0129241943359	1322.751342773438	821.298095703125	-1.298502564430237	1338.25927734375	841.705810546875	67.11936187744141	812.018310546875	1484.790771484375	37.01697540283203	741.0538940429688	1417.04638671875	29.08465766906738	696.6092529296875	1119.852294921875	31.62736701965332	792.2128295898438	1120.886840820312	3.267258405685425	798.6788940429688	947.7368774414062	213.0277252197266	744.6755981445312	898.7059936523438	158.8134002685547	702.2767944335938	1049.907104492188	76.297607421875	873.5296020507812	784.2279052734375	271.6507263183594	819.3084716796875	867.9808959960938	264.4625549316406	777.6348266601562	829.9656372070312	207.2433166503906	919.7042236328125	1664.036865234375	6.885879993438721	1043.774780273438	1719.727294921875	177.2954406738281	916.5137329101562	1707.188110351562	176.8763732910156	1056.231323242188	1685.890625	0.766673743724823	1176.671264648438	993.9376831054688	-12.19750785827637	818.63037109375	988.0055541992188	99.96553802490234	879.631591796875	1020.790161132812	166.7808532714844	1132.89013671875	1038.125854492188	127.0976715087891	1214.836303710938	533.3577270507812	223.4002075195312	1222.916137695312	668.31787109375	159.4271545410156	1274.329956054688	58.37496566772461	128.5694122314453	1257.807983398438	307.9108581542969	177.5190582275391	1263.251098632812	83.13109588623047	340.9830627441406	1212.56640625	72.93206024169922	297.5552368164062	1316.822265625	54.92341613769531	233.4832916259766	1203.586303710938	55.19705200195312	81.81050872802734	938.7357788085938	489.6295166015625	69.44776916503906	860.9682006835938	748.2381591796875	136.5965270996094	993.3386840820312	31.91845321655273	-88.67137145996094	981.7059326171875	371.6116333007812	59.28527069091797	1087.025512695312	37.83305740356445	117.1669692993164	1113.965942382812	38.54101943969727	52.83818435668945	989.5750122070312	33.93632125854492	29.64984893798828	1043.552001953125	31.89150619506836	-154.4972534179688	
617	6.16	925.7092895507812	1036.372802734375	-70.17221069335938	1046.897216796875	1044.742919921875	-82.82001495361328	979.4284057617188	1078.963745117188	-73.95253753662109	1009.079406738281	1290.325927734375	181.2395477294922	966.8692016601562	1236.626098632812	-109.1131286621094	980.9609985351562	1506.045654296875	-46.97582626342773	1011.480346679688	1403.827392578125	150.6506652832031	868.177490234375	1328.632080078125	-96.06080627441406	1078.138916015625	1484.331787109375	-72.43434906005859	1167.876342773438	1475.050659179688	-11.72410488128662	1234.512939453125	1345.517700195312	-62.85453033447266	1266.710205078125	1133.408203125	-59.23679733276367	1182.394775390625	1106.897216796875	-73.59310150146484	1310.507202148438	917.5371704101562	72.74803161621094	1314.403564453125	886.7760009765625	-16.35307693481445	1295.882202148438	1025.48095703125	-44.80038070678711	1319.742309570312	735.2673950195312	113.3961410522461	1328.287109375	821.3955688476562	11.46451854705811	1342.947021484375	842.0407104492188	79.9930419921875	813.4710693359375	1483.558715820312	42.46011352539062	742.650390625	1415.749389648438	33.60862350463867	698.0555419921875	1118.556274414062	35.44429397583008	793.865966796875	1119.673706054688	7.805915355682373	798.6669921875	946.012451171875	217.3297424316406	745.1161499023438	897.14501953125	162.6060943603516	703.3572998046875	1048.490356445312	79.95706176757812	873.2374877929688	782.2943115234375	275.9420166015625	819.0142211914062	866.0543823242188	268.6627502441406	777.2647705078125	828.3387451171875	210.8511352539062	921.8385009765625	1663.148071289062	14.36938190460205	1044.373168945312	1718.216674804688	186.0536193847656	917.10693359375	1706.045776367188	184.3371429443359	1058.4296875	1684.676391601562	9.58026123046875	1179.959228515625	994.4149169921875	1.350524306297302	819.3916625976562	986.9108276367188	105.3147735595703	879.2733764648438	1019.689331054688	173.3014678955078	1133.208129882812	1037.103149414062	137.3405914306641	1213.029663085938	533.5805053710938	237.2939453125	1222.491455078125	667.916748046875	172.5853424072266	1276.218017578125	55.7605094909668	161.2860260009766	1257.89892578125	306.9978332519531	200.5293426513672	1258.858642578125	87.72222900390625	372.2326965332031	1209.474609375	76.01675415039062	327.6885375976562	1315.610961914062	55.92044448852539	267.423095703125	1206.835693359375	50.78448867797852	112.6656799316406	938.9148559570312	488.6991577148438	72.79686737060547	860.8510131835938	747.041748046875	140.5086975097656	993.3964233398438	32.06983184814453	-88.59553527832031	982.0665283203125	370.593994140625	62.15943145751953	1087.0546875	37.70918655395508	117.2910995483398	1113.94287109375	38.43417739868164	52.89878463745117	989.5363159179688	33.92619705200195	29.69145393371582	1043.6494140625	32.18038558959961	-154.4741516113281	
618	6.17	929.2271118164062	1035.312377929688	-63.32026672363281	1050.6357421875	1043.622924804688	-73.99585723876953	982.9743041992188	1077.780395507812	-66.22948455810547	1008.601684570312	1289.098388671875	189.3449859619141	970.8564453125	1235.482055664062	-101.6015930175781	983.699951171875	1504.859985351562	-39.13407516479492	1011.481872558594	1402.618041992188	158.8871307373047	871.8677368164062	1327.427734375	-90.02480316162109	1081.257446289062	1483.2353515625	-63.27239990234375	1170.039306640625	1474.02783203125	-1.242434859275818	1237.762817382812	1344.763427734375	-51.52316284179688	1270.9150390625	1132.913208007812	-47.68821716308594	1186.944091796875	1105.912475585938	-63.02883911132812	1314.581787109375	917.5602416992188	85.05971527099609	1319.563598632812	886.7483520507812	-3.972491979598999	1300.576782226562	1025.227783203125	-32.82404708862305	1324.612915039062	735.1931762695312	125.9097061157227	1333.577514648438	821.4031982421875	24.15940093994141	1347.49169921875	842.3497314453125	92.73977661132812	814.9485473632812	1482.264404296875	47.96525955200195	744.3016357421875	1414.388061523438	38.20102691650391	699.5524291992188	1117.213989257812	39.3525390625	795.5745239257812	1118.413940429688	12.48423480987549	798.5349731445312	944.1183471679688	221.6370086669922	745.41064453125	895.48388671875	166.3747253417969	704.3252563476562	1047.027221679688	83.61905670166016	872.669677734375	780.0836181640625	280.133056640625	818.5408325195312	863.90478515625	272.8184814453125	776.694580078125	826.5927124023438	214.3753662109375	923.9373168945312	1662.197875976562	21.90898704528809	1044.930786132812	1716.664672851562	194.8505401611328	917.6603393554688	1704.828125	191.8346099853516	1060.5869140625	1683.415161132812	18.44498252868652	1183.140380859375	994.8206176757812	14.97049427032471	820.2007446289062	985.7938842773438	110.753059387207	878.9605712890625	1018.565490722656	179.9109344482422	1133.494873046875	1035.972900390625	147.6074676513672	1211.269165039062	533.6949462890625	250.9209136962891	1222.09130859375	667.4024658203125	185.6095428466797	1276.873779296875	53.66094970703125	193.7392425537109	1257.423828125	306.2867736816406	223.245361328125	1253.426635742188	92.65316772460938	402.8159484863281	1205.331665039062	79.50652313232422	357.2795715332031	1313.177001953125	57.3192253112793	300.8669738769531	1208.88818359375	47.0228385925293	143.3755493164062	939.0975952148438	487.7286682128906	76.24163818359375	860.7334594726562	745.8236694335938	144.5976104736328	993.47705078125	32.2552490234375	-88.50640869140625	982.4346313476562	369.5551147460938	65.1099853515625	1087.0849609375	37.56396865844727	117.4349212646484	1113.919311523438	38.31362152099609	52.97686767578125	989.5082397460938	33.90392684936523	29.7487678527832	1043.760009765625	32.52714538574219	-154.4403533935547	
619	6.18	932.7268676757812	1034.218872070312	-56.33211898803711	1054.304809570312	1042.45263671875	-65.05287170410156	986.5108642578125	1076.571533203125	-58.37780380249023	1008.154357910156	1287.821166992188	197.5077972412109	974.8223266601562	1234.273681640625	-93.97658538818359	986.4002685546875	1503.602294921875	-31.20125961303711	1011.502502441406	1401.351928710938	167.1720886230469	875.5554809570312	1326.158569335938	-83.84719848632812	1084.321655273438	1482.080322265625	-54.03839111328125	1172.157592773438	1472.944458007812	9.255410194396973	1240.902709960938	1343.949829101562	-40.22913360595703	1274.938842773438	1132.3447265625	-36.27616882324219	1191.313110351562	1104.8896484375	-52.53300094604492	1318.506103515625	917.5206298828125	97.24153137207031	1324.466430664062	886.61181640625	8.308783531188965	1305.0576171875	1024.903686523438	-20.98199462890625	1329.388549804688	735.2160034179688	138.6131591796875	1338.615112304688	821.3273315429688	36.7762565612793	1351.870971679688	842.6203002929688	105.3655471801758	816.454833984375	1480.915771484375	53.54820251464844	746.0071411132812	1412.974975585938	42.87832641601562	701.1129150390625	1115.834228515625	43.35710525512695	797.3629760742188	1117.115356445312	17.33297348022461	798.2927856445312	942.0703735351562	225.9618988037109	745.580322265625	893.7344970703125	170.1233367919922	705.1959228515625	1045.52734375	87.29532623291016	871.8253173828125	777.6109619140625	284.2461547851562	817.8892211914062	861.5498657226562	276.9446716308594	775.95751953125	824.7360229492188	217.8390502929688	926.005859375	1661.187133789062	29.50246047973633	1045.45068359375	1715.079223632812	203.6878051757812	918.1730346679688	1703.534423828125	199.3725433349609	1062.704956054688	1682.10595703125	27.36255073547363	1186.086669921875	994.9340209960938	28.25571250915527	821.052490234375	984.688232421875	116.2013626098633	878.6892700195312	1017.45068359375	186.5325012207031	1133.71875	1034.734619140625	157.8871002197266	1209.54150390625	533.70556640625	264.3209228515625	1221.733276367188	666.7709350585938	198.4702758789062	1276.383178710938	52.07744979858398	225.8296661376953	1256.4072265625	305.7762756347656	245.6427612304688	1247.019409179688	97.89632415771484	432.6663208007812	1200.213012695312	83.36578369140625	386.2466430664062	1309.601196289062	59.11581039428711	333.73974609375	1209.826171875	43.89197540283203	173.8246612548828	939.2962036132812	486.7251892089844	79.80451965332031	860.621337890625	744.5841064453125	148.8488311767578	993.5901489257812	32.47992324829102	-88.40829467773438	982.8049926757812	368.507080078125	68.13909912109375	1087.112670898438	37.4018440246582	117.5966033935547	1113.89892578125	38.17769622802734	53.07094573974609	989.4977416992188	33.86885452270508	29.82160568237305	1043.897827148438	32.93071365356445	-154.3909606933594	
